<svg viewBox="0 0 24 24" fill="currentColor" xmlns="http://www.w3.org/2000/svg" style="width: 100%; height: 100%;">
<path d="M12 1C18.0751 1 23 5.92487 23 12C23 18.0751 18.0751 23 12 23C5.92487 23 1 18.0751 1 12C1 5.92487 5.92487 1 12 1ZM11.9951 15C11.4428 15 10.9951 15.4477 10.9951 16C10.9951 16.5523 11.4428 17 11.9951 17H12.0049L12.1074 16.9951C12.6117 16.9439 13.0049 16.5178 13.0049 16C13.0049 15.4822 12.6117 15.0561 12.1074 15.0049L12.0049 15H11.9951ZM11.9951 7C11.4428 7 10.9951 7.44772 10.9951 8V12C10.9951 12.5523 11.4428 13 11.9951 13C12.5474 13 12.9951 12.5523 12.9951 12V8C12.9951 7.44772 12.5474 7 11.9951 7Z" fill="currentColor"/>
</svg>
