<svg viewBox="0 0 24 24" fill="currentColor" xmlns="http://www.w3.org/2000/svg" style="width: 100%; height: 100%;">
<path d="M12 1C18.0751 1 23 5.92487 23 12C23 18.0751 18.0751 23 12 23C5.92487 23 1 18.0751 1 12C1 5.92487 5.92487 1 12 1ZM12 3C7.02944 3 3 7.02944 3 12C3 16.9706 7.02944 21 12 21C16.9706 21 21 16.9706 21 12C21 7.02944 16.9706 3 12 3ZM12.1123 15.0049C12.6165 15.0561 13.0098 15.4822 13.0098 16C13.0098 16.5178 12.6165 16.9439 12.1123 16.9951L12.0098 17H12C11.4477 17 11 16.5523 11 16C11 15.4477 11.4477 15 12 15H12.0098L12.1123 15.0049ZM12 7C12.5523 7 13 7.44772 13 8V12C13 12.5523 12.5523 13 12 13C11.4477 13 11 12.5523 11 12V8C11 7.44772 11.4477 7 12 7Z" fill="currentColor"/>
</svg>
