<svg viewBox="0 0 24 24" fill="currentColor" xmlns="http://www.w3.org/2000/svg">
<path d="M4.49985 4.6004C4.0028 4.6004 3.59985 5.00335 3.59985 5.5004C3.59985 5.99746 4.0028 6.4004 4.49985 6.4004H19.4999C19.9969 6.4004 20.3999 5.99746 20.3999 5.5004C20.3999 5.00335 19.9969 4.6004 19.4999 4.6004H4.49985Z" fill="currentColor"/>
<path d="M9.49985 8.93373C9.0028 8.93373 8.59985 9.33667 8.59985 9.83373C8.59985 10.3308 9.0028 10.7337 9.49985 10.7337H19.4999C19.9969 10.7337 20.3999 10.3308 20.3999 9.83373C20.3999 9.33667 19.9969 8.93373 19.4999 8.93373H9.49985Z" fill="currentColor"/>
<path d="M3.59985 14.167C3.59985 13.67 4.0028 13.267 4.49985 13.267H19.4999C19.9969 13.267 20.3999 13.67 20.3999 14.167C20.3999 14.6641 19.9969 15.067 19.4999 15.067H4.49985C4.0028 15.067 3.59985 14.6641 3.59985 14.167Z" fill="currentColor"/>
<path d="M9.49985 17.6004C9.0028 17.6004 8.59985 18.0033 8.59985 18.5004C8.59985 18.9974 9.0028 19.4004 9.49985 19.4004H19.4999C19.9969 19.4004 20.3999 18.9974 20.3999 18.5004C20.3999 18.0033 19.9969 17.6004 19.4999 17.6004H9.49985Z" fill="currentColor"/>
</svg>
