<svg viewBox="0 0 24 24" fill="currentColor" xmlns="http://www.w3.org/2000/svg">
<path d="M11.3693 4.22437C11.762 3.90402 12.341 3.92662 12.7072 4.29273L19.7072 11.2927L19.7755 11.3689C20.0957 11.7617 20.0732 12.3407 19.7072 12.7068C19.3411 13.0728 18.762 13.0953 18.3693 12.7752L18.2931 12.7068L13.0001 7.41383V18.9998C13 19.5519 12.5523 19.9997 12.0001 19.9998C11.4479 19.9998 11.0003 19.5519 11.0001 18.9998V7.41383L5.70716 12.7068C5.31668 13.0972 4.68361 13.0971 4.2931 12.7068C3.9026 12.3163 3.90265 11.6833 4.2931 11.2927L11.2931 4.29273L11.3693 4.22437Z" fill="currentColor"/>
</svg>
