<svg width="24" height="24" viewBox="0 0 24 24" fill="currentColor" xmlns="http://www.w3.org/2000/svg">
<path d="M11.9999 4.00006C12.5521 4.00018 12.9999 4.44785 12.9999 5.00006V16.586L18.2929 11.293C18.6835 10.9026 19.3165 10.9025 19.707 11.293C20.0974 11.6835 20.0974 12.3166 19.707 12.7071L12.707 19.7071C12.3165 20.0976 11.6835 20.0975 11.2929 19.7071L4.29292 12.7071L4.22456 12.6309C3.90421 12.2381 3.9268 11.6591 4.29292 11.293C4.65904 10.927 5.23808 10.9044 5.63081 11.2247L5.70698 11.293L10.9999 16.586V5.00006C10.9999 4.44778 11.4477 4.00006 11.9999 4.00006Z" fill="currentColor"/>
</svg>
