<svg viewBox="0 0 24 24" fill="currentColor" xmlns="http://www.w3.org/2000/svg" style="width: 100%; height: 100%;">
<path d="M18.1001 3.99729C18.1001 3.50023 18.5031 3.09729 19.0001 3.09729C19.4972 3.09729 19.9001 3.50023 19.9001 3.99729V5.53702C19.9002 6.90349 19.9002 7.98408 19.829 8.85457C19.7564 9.74399 19.605 10.493 19.2571 11.1758C18.6914 12.286 17.7888 13.1886 16.6787 13.7542C15.9959 14.1021 15.2468 14.2535 14.3574 14.3262C13.4869 14.3973 12.4064 14.3973 11.0399 14.3973H6.67158L10.1365 17.8623C10.488 18.2137 10.488 18.7836 10.1365 19.1351C9.78508 19.4865 9.21523 19.4865 8.86376 19.1351L3.86376 14.1351C3.51229 13.7836 3.51229 13.2137 3.86376 12.8623L8.86376 7.86226C9.21523 7.51079 9.78508 7.51079 10.1365 7.86226C10.488 8.21373 10.488 8.78358 10.1365 9.13505L6.67431 12.5973H11.0001C12.4151 12.5973 13.4222 12.5966 14.2108 12.5322C14.989 12.4686 15.4747 12.3475 15.8615 12.1504C16.633 11.7573 17.2602 11.1301 17.6533 10.3587C17.8503 9.97189 17.9714 9.4861 18.035 8.70799C18.0994 7.91938 18.1001 6.91227 18.1001 5.49729V3.99729Z"/>
</svg>
