<svg width="24" height="24" viewBox="0 0 24 24" fill="none" xmlns="http://www.w3.org/2000/svg">
<path d="M12 3.75C12.6904 3.75 13.25 4.30964 13.25 5V15.9824L18.1162 11.1162C18.6044 10.6281 19.3956 10.6281 19.8838 11.1162C20.3719 11.6044 20.3719 12.3956 19.8838 12.8838L12.8838 19.8838C12.3956 20.3719 11.6044 20.3719 11.1162 19.8838L4.11621 12.8838L4.03027 12.7891C3.62979 12.2981 3.65855 11.5739 4.11621 11.1162C4.57387 10.6585 5.29809 10.6298 5.78906 11.0303L5.88379 11.1162L10.75 15.9824V5C10.75 4.30964 11.3096 3.75 12 3.75Z" fill="black"/>
</svg>
