<svg viewBox="0 0 24 24" fill="currentColor" xmlns="http://www.w3.org/2000/svg" style="width: 100%; height: 100%;">
<path d="M11.211 4.03025C11.7019 3.62981 12.4262 3.65854 12.8838 4.11619L19.8838 11.1162L19.9698 11.2109C20.3702 11.7019 20.3414 12.4261 19.8838 12.8838C19.4262 13.3414 18.7019 13.3701 18.211 12.9697L18.1162 12.8838L13.25 8.01755V19C13.25 19.6903 12.6903 20.2499 12 20.25C11.3097 20.25 10.75 19.6903 10.75 19V8.01755L5.88382 12.8838C5.39568 13.3719 4.6044 13.3719 4.11624 12.8838C3.62808 12.3956 3.62808 11.6043 4.11624 11.1162L11.1162 4.11619L11.211 4.03025Z" fill="currentColor"/>
</svg>
