<svg viewBox="0 0 24 24" fill="currentColor" xmlns="http://www.w3.org/2000/svg" style="width: 100%; height: 100%;">
<path d="M5.89985 3.99729C5.89985 3.50023 5.49691 3.09729 4.99985 3.09729C4.5028 3.09729 4.09985 3.50023 4.09985 3.99729V5.53702C4.09985 6.90349 4.09984 7.98408 4.17096 8.85457C4.24363 9.74399 4.39501 10.493 4.74292 11.1758C5.30857 12.286 6.21115 13.1886 7.32131 13.7542C8.00411 14.1021 8.75316 14.2535 9.64257 14.3262C10.5131 14.3973 11.5936 14.3973 12.9601 14.3973H17.3284L13.8635 17.8623C13.512 18.2137 13.512 18.7836 13.8635 19.1351C14.2149 19.4865 14.7848 19.4865 15.1362 19.1351L20.1362 14.1351C20.4877 13.7836 20.4877 13.2137 20.1362 12.8623L15.1362 7.86226C14.7848 7.51079 14.2149 7.51079 13.8635 7.86226C13.512 8.21373 13.512 8.78358 13.8635 9.13505L17.3257 12.5973H12.9999C11.5849 12.5973 10.5778 12.5966 9.78915 12.5322C9.01105 12.4686 8.52525 12.3475 8.13849 12.1504C7.36703 11.7573 6.73981 11.1301 6.34673 10.3587C6.14966 9.97189 6.02856 9.4861 5.96499 8.70799C5.90055 7.91938 5.89985 6.91227 5.89985 5.49729V3.99729Z"/>
</svg>
