<svg width="24" height="24" viewBox="0 0 24 24" fill="none" xmlns="http://www.w3.org/2000/svg">
<path d="M11.3692 4.22486C11.762 3.90451 12.341 3.92711 12.7071 4.29322C13.0731 4.65935 13.0958 5.23839 12.7755 5.63111L12.7071 5.70729L7.41413 11.0003H19.0001C19.5523 11.0003 20.0001 11.448 20.0001 12.0003C19.9999 12.5524 19.5522 13.0002 19.0001 13.0003H7.41413L12.7071 18.2932L12.7755 18.3694C13.0957 18.7622 13.0732 19.3412 12.7071 19.7073C12.341 20.0733 11.762 20.0958 11.3692 19.7756L11.293 19.7073L4.29304 12.7073C3.90254 12.3168 3.90259 11.6838 4.29304 11.2932L11.293 4.29322L11.3692 4.22486Z" fill="black"/>
</svg>
