<svg viewBox="0 0 24 24" xmlns="http://www.w3.org/2000/svg" style="width: 100%; height: 100%;">
<path d="M20.5 7.27V16.73C20.5 17.59 19.81 18.27 18.95 18.27H5.05C4.19 18.27 3.5 17.58 3.5 16.73V7.27C3.5 6.41 4.19 5.73 5.05 5.73H18.95C19.81 5.73 20.5 6.42 20.5 7.27Z" stroke="currentColor" stroke-width="1.5" stroke-linecap="round" stroke-linejoin="round" fill="none"/>
<path d="M12 15C13.6569 15 15 13.6569 15 12C15 10.3431 13.6569 9 12 9C10.3431 9 9 10.3431 9 12C9 13.6569 10.3431 15 12 15Z" stroke="currentColor" stroke-width="1.5" stroke-linecap="round" stroke-linejoin="round" fill="none"/>
<path d="M18 9V15" stroke="currentColor" stroke-width="1.5" stroke-linecap="round" stroke-linejoin="round" fill="none"/>
<path d="M6 9V15" stroke="currentColor" stroke-width="1.5" stroke-linecap="round" stroke-linejoin="round" fill="none"/>
</svg>