<svg width="24" height="24" viewBox="0 0 24 24" fill="currentColor" xmlns="http://www.w3.org/2000/svg">
<path d="M14.1024 20.5049C14.6069 20.5559 15.0008 20.9821 15.0008 21.5C15.0008 22.0179 14.6069 22.4441 14.1024 22.4951L14.0008 22.5H10.0008C9.44856 22.5 9.00084 22.0523 9.00084 21.5C9.00084 20.9477 9.44856 20.5 10.0008 20.5H14.0008L14.1024 20.5049ZM12.0008 1.5C13.8571 1.50006 15.6374 2.23734 16.9501 3.5498C18.2628 4.86256 19.0008 6.64349 19.0008 8.5C19.0008 11.4127 19.7325 13.3439 20.4999 14.5771L20.9852 15.3594C21.1262 15.589 21.2454 15.7881 21.3417 15.9551C21.437 16.1206 21.5244 16.2802 21.5887 16.4219C21.6208 16.4924 21.6564 16.5789 21.6844 16.6729C21.7019 16.7316 21.7316 16.8408 21.7381 16.9775L21.7362 17.1221C21.725 17.2589 21.6965 17.4929 21.5624 17.7344C21.4618 17.9153 21.3338 18.0437 21.2294 18.1309L21.1346 18.2051C20.8808 18.3933 20.5887 18.4337 20.4969 18.4473C20.3497 18.4691 20.1821 18.4807 20.0135 18.4873C19.6736 18.5006 19.2007 18.5 18.6122 18.5H5.38952C4.80084 18.5 4.32817 18.5006 3.98815 18.4873C3.8194 18.4807 3.65216 18.4691 3.50475 18.4473C3.42495 18.4354 3.19124 18.4028 2.96373 18.2686L2.86705 18.2051C2.75681 18.1233 2.5725 17.9759 2.43834 17.7344C2.33763 17.5531 2.29701 17.376 2.27819 17.2412L2.26549 17.1221C2.24889 16.9186 2.29297 16.7511 2.31627 16.6729C2.34433 16.5788 2.38089 16.4925 2.41295 16.4219C2.47727 16.2802 2.56371 16.1205 2.65905 15.9551C2.85154 15.6211 3.138 15.1603 3.50084 14.5771L3.6444 14.3379C4.30962 13.1816 4.9143 11.4773 4.99205 9.03516L5.00084 8.5C5.00084 6.64348 5.73789 4.86256 7.05065 3.5498C8.36339 2.23712 10.1444 1.5 12.0008 1.5ZM12.0008 3.5C10.6748 3.5 9.40239 4.02717 8.46471 4.96484C7.52726 5.90249 7.00084 7.17409 7.00084 8.5L6.99108 9.10156C6.90293 11.8556 6.21372 13.88 5.37975 15.3311L5.19909 15.6338C4.98661 15.9753 4.8099 16.2609 4.66491 16.498C4.87121 16.4992 5.11119 16.5 5.38952 16.5H18.6122C18.8901 16.5 19.1297 16.4992 19.3358 16.498C19.3177 16.4684 19.3002 16.4374 19.2811 16.4062L18.8016 15.6338C17.8274 14.0681 17.0008 11.7676 17.0008 8.5C17.0008 7.17397 16.4736 5.90251 15.536 4.96484C14.5984 4.02722 13.3268 3.50006 12.0008 3.5Z" fill="currentColor"/>
</svg>
