<svg viewBox="0 0 24 24" fill="currentColor" xmlns="http://www.w3.org/2000/svg">
<path fill-rule="evenodd" clip-rule="evenodd" d="M14.2002 2C15.0237 2 15.7016 1.99898 16.252 2.04395C16.814 2.08988 17.3311 2.18827 17.8164 2.43555L18.0918 2.58985C18.7183 2.97414 19.2289 3.52513 19.5645 4.1836L19.6504 4.36719C19.8356 4.79892 19.9159 5.2562 19.9561 5.74805C20.001 6.29843 20 6.97632 20 7.79981V21C20 21.3565 19.8103 21.6863 19.502 21.8652C19.1937 22.0441 18.8134 22.045 18.5039 21.8682L12 18.1514L5.4961 21.8682C5.18663 22.045 4.80634 22.0441 4.49805 21.8652C4.18974 21.6863 4 21.3565 4 21V7.79981C4 6.97632 3.99898 6.29843 4.04395 5.74805C4.08988 5.18599 4.18827 4.6689 4.43555 4.1836L4.58985 3.90821C4.97414 3.2817 5.52513 2.7711 6.1836 2.43555L6.36719 2.34961C6.79892 2.16442 7.2562 2.08414 7.74805 2.04395C8.29843 1.99898 8.97632 2 9.79981 2H14.2002Z" fill="currentColor"/>
</svg>
