<svg viewBox="0 0 24 24" xmlns="http://www.w3.org/2000/svg" style="width: 100%; height: 100%;">
<path d="M2.25 3H3.64C4.34 3 4.93 3.54 4.98 4.24L5.7 12.32C5.83 13.88 7.13 15.1 8.7 15.1H17.62C18.94 15.1 20.08 14.16 20.31 12.87L20.95 9.14C21.25 7.42 19.97 5.81 18.22 5.81H6.25" stroke="currentColor" stroke-width="1.5" stroke-miterlimit="10" stroke-linecap="round" stroke-linejoin="round" fill="none"/>
<path d="M16.25 22C16.9404 22 17.5 21.4404 17.5 20.75C17.5 20.0596 16.9404 19.5 16.25 19.5C15.5596 19.5 15 20.0596 15 20.75C15 21.4404 15.5596 22 16.25 22Z" stroke="currentColor" stroke-width="1.5" stroke-miterlimit="10" stroke-linecap="round" stroke-linejoin="round" fill="none"/>
<path d="M8.25 22C8.9404 22 9.5 21.4404 9.5 20.75C9.5 20.0596 8.9404 19.5 8.25 19.5C7.5596 19.5 7 20.0596 7 20.75C7 21.4404 7.5596 22 8.25 22Z" stroke="currentColor" stroke-width="1.5" stroke-miterlimit="10" stroke-linecap="round" stroke-linejoin="round" fill="none"/>
</svg>