<svg width="24" height="24" viewBox="0 0 24 24" fill="none" xmlns="http://www.w3.org/2000/svg">
<path d="M9.05566 19C10.1602 19 11.0557 19.8954 11.0557 21C11.0557 22.1046 10.1602 23 9.05566 23C7.95112 23 7.05566 22.1046 7.05566 21C7.05567 19.8955 7.95112 19 9.05566 19Z" fill="black"/>
<path d="M17.0557 19C18.1602 19 19.0557 19.8954 19.0557 21C19.0557 22.1046 18.1602 23 17.0557 23C15.9511 23 15.0557 22.1046 15.0557 21C15.0557 19.8955 15.9511 19 17.0557 19Z" fill="black"/>
<path fill-rule="evenodd" clip-rule="evenodd" d="M3.72754 1.00879C3.82757 1.01646 3.95714 1.03292 4.09961 1.07911L4.24512 1.13575L4.3418 1.1836C4.53037 1.28671 4.69451 1.42946 4.82324 1.60157L4.88477 1.68946L4.96094 1.82618C5.02688 1.96077 5.06224 2.08658 5.08398 2.18457C5.11023 2.3029 5.12832 2.43923 5.14355 2.5459L5.49414 5H21.0889C21.2367 5 21.4124 4.99953 21.5635 5.0127C21.7034 5.0249 21.9052 5.05328 22.1162 5.15528L22.207 5.20411L22.3184 5.27637C22.5703 5.45488 22.7627 5.70776 22.8662 6.00098L22.8965 6.09864C22.9572 6.32487 22.9478 6.5282 22.9336 6.66797C22.9259 6.74331 22.9142 6.8243 22.9004 6.9043L22.8574 7.13672L21.5332 14.0859C21.4478 14.5342 21.3739 14.924 21.2881 15.2432C21.2213 15.4915 21.1383 15.7355 21.0127 15.9697L20.8721 16.2012C20.5958 16.6024 20.2262 16.9295 19.7969 17.1553L19.6094 17.2461C19.2723 17.3944 18.9328 17.45 18.5908 17.4756C18.2612 17.5002 17.8637 17.5 17.4072 17.5H8.84961C8.36993 17.5 7.95369 17.5011 7.60938 17.4746C7.29718 17.4506 6.98711 17.4006 6.68066 17.2813L6.5498 17.2256C6.09026 17.0145 5.69247 16.6914 5.39258 16.2871L5.26953 16.1084C5.06371 15.7843 4.95611 15.4416 4.88086 15.0918C4.84453 14.9229 4.81228 14.7351 4.78125 14.5303L4.68848 13.8662L3.63574 6.13477L3.18848 3H2.05566C1.50341 2.99997 1.05566 2.55227 1.05566 2C1.05567 1.44774 1.50341 1.00004 2.05566 1H3.3623C3.46997 1 3.60688 0.99956 3.72754 1.00879Z" fill="black"/>
</svg>
