<svg viewBox="0 0 24 24" fill="currentColor" xmlns="http://www.w3.org/2000/svg">
<path d="M12 1C18.0751 1 23 5.92487 23 12C23 18.0751 18.0751 23 12 23C5.92487 23 1 18.0751 1 12C1 5.92487 5.92487 1 12 1ZM17.207 8.29297C16.8165 7.90245 16.1835 7.90245 15.793 8.29297L10.5 13.5859L8.20703 11.293L8.13086 11.2246C7.73809 10.9043 7.15908 10.9269 6.79297 11.293C6.42686 11.6591 6.40426 12.2381 6.72461 12.6309L6.79297 12.707L9.79297 15.707L9.86914 15.7754C10.2619 16.0957 10.8409 16.0731 11.207 15.707L17.207 9.70703C17.5976 9.31651 17.5976 8.68349 17.207 8.29297Z"/>
</svg>
