<svg viewBox="0 0 24 24" fill="currentColor" xmlns="http://www.w3.org/2000/svg">
<path d="M10.3691 6.22437C10.7619 5.90402 11.3409 5.92662 11.707 6.29273C12.0729 6.65886 12.0956 7.23791 11.7753 7.63063L11.707 7.7068L7.41401 11.9998L11.707 16.2927L11.7753 16.3689C12.0955 16.7617 12.073 17.3407 11.707 17.7068C11.3409 18.0728 10.7618 18.0953 10.3691 17.7752L10.2929 17.7068L5.29291 12.7068C4.90242 12.3163 4.90247 11.6833 5.29291 11.2927L10.2929 6.29273L10.3691 6.22437Z" fill="currentColor"/>
<path d="M17.3691 6.22437C17.7619 5.90402 18.3409 5.92662 18.707 6.29273C19.0729 6.65886 19.0956 7.23791 18.7753 7.63063L18.707 7.7068L14.414 11.9998L18.707 16.2927L18.7753 16.3689C19.0955 16.7617 19.073 17.3407 18.707 17.7068C18.3409 18.0728 17.7618 18.0953 17.3691 17.7752L17.2929 17.7068L12.2929 12.7068C11.9024 12.3163 11.9025 11.6833 12.2929 11.2927L17.2929 6.29273L17.3691 6.22437Z" fill="currentColor"/>
</svg>
