<svg width="24" height="24" viewBox="0 0 24 24" fill="none" xmlns="http://www.w3.org/2000/svg">
<path d="M10.211 6.03025C10.7019 5.62981 11.4262 5.65854 11.8838 6.11619C12.3414 6.57384 12.3702 7.29809 11.9698 7.78904L11.8838 7.88376L7.76761 12L11.8838 16.1162L11.9698 16.2109C12.3702 16.7019 12.3414 17.4261 11.8838 17.8838C11.4262 18.3414 10.7019 18.3701 10.211 17.9697L10.1162 17.8838L5.11624 12.8838C4.62808 12.3956 4.62808 11.6043 5.11624 11.1162L10.1162 6.11619L10.211 6.03025Z" fill="black"/>
<path d="M17.211 6.03025C17.7019 5.62981 18.4262 5.65854 18.8838 6.11619C19.3414 6.57384 19.3702 7.29809 18.9698 7.78904L18.8838 7.88376L14.7676 12L18.8838 16.1162L18.9698 16.2109C19.3702 16.7019 19.3414 17.4261 18.8838 17.8838C18.4262 18.3414 17.7019 18.3701 17.211 17.9697L17.1162 17.8838L12.1162 12.8838C11.6281 12.3956 11.6281 11.6043 12.1162 11.1162L17.1162 6.11619L17.211 6.03025Z" fill="black"/>
</svg>
