<svg width="24" height="24" viewBox="0 0 24 24" fill="none" xmlns="http://www.w3.org/2000/svg">
<path d="M5.29298 6.29298C5.65909 5.92686 6.23809 5.90427 6.63087 6.22462L6.70704 6.29298L11.707 11.293C12.0974 11.6835 12.0975 12.3166 11.707 12.707L6.70704 17.707C6.31656 18.0974 5.68349 18.0974 5.29298 17.707C4.90248 17.3165 4.90253 16.6835 5.29298 16.293L9.58594 12L5.29298 7.70704L5.22462 7.63087C4.90429 7.23812 4.92694 6.6591 5.29298 6.29298Z" fill="black"/>
<path d="M12.293 6.29298C12.6591 5.92686 13.2381 5.90427 13.6309 6.22462L13.707 6.29298L18.707 11.293C19.0974 11.6835 19.0975 12.3166 18.707 12.707L13.707 17.707C13.3166 18.0974 12.6835 18.0974 12.293 17.707C11.9025 17.3165 11.9025 16.6835 12.293 16.293L16.5859 12L12.293 7.70704L12.2246 7.63087C11.9043 7.23812 11.9269 6.6591 12.293 6.29298Z" fill="black"/>
</svg>
