<svg viewBox="0 0 24 24" fill="currentColor" xmlns="http://www.w3.org/2000/svg" style="width: 100%; height: 100%;">
<path d="M5.11621 6.11621C5.57387 5.65855 6.29809 5.62979 6.78906 6.03027L6.88379 6.11621L11.8838 11.1162C12.3719 11.6044 12.3719 12.3956 11.8838 12.8838L6.88379 17.8838C6.39563 18.3719 5.60437 18.3719 5.11621 17.8838C4.62806 17.3956 4.62806 16.6044 5.11621 16.1162L9.23242 12L5.11621 7.88379L5.03027 7.78906C4.62979 7.29809 4.65855 6.57387 5.11621 6.11621Z" fill="currentColor"/>
<path d="M12.1162 6.11621C12.5739 5.65855 13.2981 5.62979 13.7891 6.03027L13.8838 6.11621L18.8838 11.1162C19.3719 11.6044 19.3719 12.3956 18.8838 12.8838L13.8838 17.8838C13.3956 18.3719 12.6044 18.3719 12.1162 17.8838C11.6281 17.3956 11.6281 16.6044 12.1162 16.1162L16.2324 12L12.1162 7.88379L12.0303 7.78906C11.6298 7.29809 11.6585 6.57387 12.1162 6.11621Z" fill="currentColor"/>
</svg>
