<svg  viewBox="0 0 28 29" fill="currentColor" xmlns="http://www.w3.org/2000/svg" style="width: 100%; height: 100%;">
<path d="M12.5 1.51074C12.5 0.682315 13.1716 0.0107422 14 0.0107422C16.769 0.0107422 19.4757 0.831828 21.778 2.37017C24.0803 3.90851 25.8747 6.09501 26.9344 8.65317C27.994 11.2113 28.2713 14.0263 27.7311 16.742C27.1909 19.4577 25.8575 21.9523 23.8996 23.9102C21.9416 25.8682 19.4471 27.2015 16.7313 27.7417C14.0156 28.2819 11.2006 28.0047 8.64246 26.9451C6.08429 25.8854 3.89778 24.091 2.35944 21.7887C0.821092 19.4864 2.57464e-06 16.7797 0 14.0108C0 13.1823 0.671571 12.5108 1.5 12.5108C2.32843 12.5108 3 13.1823 3 14.0108C3 16.1863 3.64514 18.3131 4.85384 20.122C6.06254 21.931 7.78051 23.3409 9.79051 24.1734C11.8005 25.006 14.0122 25.2238 16.146 24.7994C18.2798 24.3749 20.2399 23.3273 21.7782 21.7889C23.3166 20.2505 24.3643 18.2905 24.7887 16.1567C25.2131 14.0229 24.9953 11.8112 24.1627 9.80122C23.3302 7.79124 21.9203 6.07327 20.1113 4.86458C18.3024 3.65588 16.1756 3.01074 14 3.01074C13.1716 3.01074 12.5 2.33917 12.5 1.51074Z" fill="currentColor"/>
</svg>
