<svg viewBox="0 0 24 24" fill="currentColor" xmlns="http://www.w3.org/2000/svg" style="width: 100%; height: 100%;">
<path d="M20 5C20 4.44771 19.5523 4 19 4H5.25C4.55966 4 4 4.55967 4 5.25V14.25C4 14.9403 4.55966 15.5 5.25 15.5H10.5566L10.6934 15.5098C11.0091 15.5533 11.2887 15.7456 11.4404 16.0322L12.8291 18.6582L13.8896 16.1152L13.957 15.9824C14.1362 15.6862 14.4592 15.5 14.8125 15.5H18.75C19.4403 15.5 20 14.9403 20 14.25V5ZM22 14.25C22 16.0449 20.5449 17.4999 18.75 17.5H15.4795L13.8604 21.3848C13.7114 21.7419 13.3699 21.9813 12.9834 21.999C12.5968 22.0167 12.2347 21.8098 12.0537 21.4678L9.9541 17.5H5.25C3.45508 17.5 2 16.0449 2 14.25V5.25C2 3.45509 3.45509 2 5.25 2H19C20.6569 2 22 3.34315 22 5V14.25Z" fill="currentColor"/>
</svg>
