<svg viewBox="0 0 24 24" fill="currentColor" xmlns="http://www.w3.org/2000/svg">
<path d="M11.4453 12.168C11.7521 11.9634 12.1466 11.9443 12.4717 12.1182C12.7968 12.2922 13 12.6312 13 13V17H13.25C13.8023 17 14.25 17.4477 14.25 18C14.25 18.5523 13.8023 19 13.25 19H10.75C10.1977 19 9.75 18.5523 9.75 18C9.75 17.4477 10.1977 17 10.75 17H11V14.8643C10.5469 15.127 9.9625 14.9965 9.66797 14.5547C9.36162 14.0952 9.48579 13.4743 9.94531 13.168L11.4453 12.168Z" fill="currentColor"/>
<path fill-rule="evenodd" clip-rule="evenodd" d="M16 1C16.5523 1 17 1.44772 17 2V3.00293C17.4755 3.0062 17.8911 3.01447 18.252 3.04395C18.814 3.08987 19.3311 3.18827 19.8164 3.43555L20.0918 3.58984C20.7183 3.97413 21.2289 4.52512 21.5645 5.18359L21.6504 5.36719C21.8356 5.79892 21.9159 6.2562 21.9561 6.74805C22.001 7.29843 22 7.97632 22 8.7998V17.2002C22 18.0237 22.001 18.7016 21.9561 19.252C21.9159 19.7438 21.8356 20.2011 21.6504 20.6328L21.5645 20.8164C21.2289 21.4749 20.7183 22.0259 20.0918 22.4102L19.8164 22.5645C19.3311 22.8117 18.814 22.9101 18.252 22.9561C17.7016 23.001 17.0237 23 16.2002 23H7.79981C6.97632 23 6.29843 23.001 5.74805 22.9561C5.2562 22.9159 4.79892 22.8356 4.36719 22.6504L4.1836 22.5645C3.52513 22.2289 2.97414 21.7183 2.58985 21.0918L2.43555 20.8164C2.18827 20.3311 2.08988 19.814 2.04395 19.252C1.99898 18.7016 2 18.0237 2 17.2002V8.7998C2 7.97632 1.99898 7.29843 2.04395 6.74805C2.08988 6.18599 2.18827 5.6689 2.43555 5.18359L2.58985 4.9082C2.97414 4.2817 3.52513 3.7711 4.1836 3.43555L4.36719 3.34961C4.79892 3.16442 5.2562 3.08414 5.74805 3.04395C6.10885 3.01447 6.52454 3.0062 7 3.00293V2C7 1.44772 7.44772 1 8 1C8.55229 1 9 1.44772 9 2V3H15V2C15 1.44772 15.4477 1 16 1ZM4 17.2002C4 18.0566 4.00035 18.6388 4.03711 19.0889C4.07293 19.5273 4.13809 19.7518 4.21778 19.9082L4.29492 20.0459C4.48707 20.3591 4.76256 20.6145 5.0918 20.7822L5.22461 20.8389C5.37418 20.8924 5.58253 20.936 5.91113 20.9629C6.36117 20.9997 6.94342 21 7.79981 21H16.2002C17.0566 21 17.6388 20.9997 18.0889 20.9629C18.5273 20.9271 18.7518 20.8619 18.9082 20.7822L19.0459 20.7051C19.3592 20.5129 19.6145 20.2374 19.7822 19.9082L19.8389 19.7754C19.8924 19.6258 19.936 19.4175 19.9629 19.0889C19.9997 18.6388 20 18.0566 20 17.2002V11H4V17.2002ZM9 6C9 6.55228 8.55229 7 8 7C7.44772 7 7 6.55228 7 6V5.00293C6.55454 5.00606 6.2047 5.01313 5.91113 5.03711C5.58253 5.06396 5.37418 5.10762 5.22461 5.16113L5.0918 5.21777C4.76256 5.38555 4.48707 5.64085 4.29492 5.9541L4.21778 6.0918C4.13809 6.2482 4.07293 6.47272 4.03711 6.91113C4.00035 7.36117 4 7.94341 4 8.7998V9H20V8.7998C20 7.94341 19.9997 7.36117 19.9629 6.91113C19.936 6.58253 19.8924 6.37418 19.8389 6.22461L19.7822 6.0918C19.6145 5.76256 19.3592 5.48707 19.0459 5.29492L18.9082 5.21777C18.7518 5.13808 18.5273 5.07293 18.0889 5.03711C17.7953 5.01313 17.4455 5.00606 17 5.00293V6C17 6.55228 16.5523 7 16 7C15.4477 7 15 6.55228 15 6V5H9V6Z" fill="currentColor"/>
</svg>
