<svg viewBox="0 0 24 24" fill="currentColor" xmlns="http://www.w3.org/2000/svg" style="width: 100%; height: 100%;">
<path d="M11.9984 17.3787C8.10038 17.3787 5.51737 14.5139 5.51737 10.2402V3.5832C5.51737 3.01257 5.97995 2.54999 6.55058 2.54999C7.1212 2.54999 7.58378 3.01257 7.58378 3.58319V10.2402C7.58378 13.3398 9.34492 15.4062 11.9984 15.4062C14.6518 15.4062 16.413 13.3398 16.413 10.2402V3.5832C16.413 3.01257 16.8756 2.54999 17.4462 2.54999C18.0168 2.54999 18.4794 3.01257 18.4794 3.58319V10.2402C18.4794 14.5139 15.8964 17.3787 11.9984 17.3787Z" fill="currentColor"/>
<path d="M5.00003 19.65C4.50298 19.65 4.10004 20.0529 4.10004 20.55C4.10004 21.047 4.50298 21.45 5.00003 21.45H19C19.497 21.45 19.9 21.047 19.9 20.55C19.9 20.0529 19.497 19.65 19 19.65H5.00003Z" fill="currentColor"/>
</svg>
