<svg viewBox="0 0 24 24" fill="currentColor" xmlns="http://www.w3.org/2000/svg">
<path d="M19.7533 2.60004C20.3056 2.60004 20.7533 3.04775 20.7533 3.60004C20.7533 4.15232 20.3056 4.60004 19.7533 4.60004H15.4554L11.1801 19.3998H14.8998C15.452 19.3998 15.8997 19.8476 15.8998 20.3998C15.8998 20.9521 15.4521 21.3998 14.8998 21.3998H4.80017C4.24789 21.3998 3.80017 20.9521 3.80017 20.3998C3.80028 19.8476 4.24795 19.3998 4.80017 19.3998H9.09802L13.3734 4.60004H9.65369C9.1014 4.60004 8.65369 4.15232 8.65369 3.60004C8.65369 3.04775 9.1014 2.60004 9.65369 2.60004H19.7533Z" fill="currentColor"/>
</svg>
