<svg viewBox="0 0 24 24" fill="currentColor" xmlns="http://www.w3.org/2000/svg" style="width: 100%; height: 100%;">
<path d="M6.77363 18.4639C8.1412 20.0657 9.81809 20.8292 11.9982 20.8292C15.5205 20.8292 17.8687 18.8098 17.8687 15.7571C17.8687 14.6112 17.5463 13.6753 16.8526 12.9004H20.5C20.997 12.9004 21.4 12.4974 21.4 12.0004C21.4 11.5033 20.997 11.1004 20.5 11.1004H13.8682C13.5065 10.9705 13.1182 10.848 12.7027 10.732L11.8574 10.4972C9.62657 9.88662 8.85167 9.22913 8.85167 7.93762C8.85167 6.2704 10.1197 5.14326 11.9982 5.14326C13.2415 5.14326 14.3487 5.64193 15.223 6.59078C15.5984 6.99817 16.2026 7.15589 16.682 6.87834C17.1898 6.58438 17.3587 5.92179 16.9771 5.47613C15.722 4.0102 13.944 3.17078 11.9982 3.17078C8.9456 3.17078 6.7383 5.19023 6.7383 7.93762C6.7383 9.26825 7.2503 10.3002 8.34632 11.1004H3.50003C3.00298 11.1004 2.60004 11.5033 2.60004 12.0004C2.60004 12.4974 3.00298 12.9004 3.50003 12.9004H13.0047C15.022 13.5867 15.7553 14.3877 15.7553 15.7571C15.7553 17.6826 14.323 18.8567 11.9982 18.8567C10.5411 18.8567 9.46974 18.3906 8.47829 17.2853C8.10838 16.8729 7.49777 16.7421 7.03016 17.0391C6.53615 17.3528 6.39362 18.0189 6.77363 18.4639Z" fill="currentColor"/>
</svg>
