<svg viewBox="0 0 24 24" fill="currentColor" xmlns="http://www.w3.org/2000/svg" style="width: 100%; height: 100%;">
<path fill-rule="evenodd" clip-rule="evenodd" d="M8.44388 20.5005C7.6038 20.5005 7.18376 20.5005 6.8629 20.337C6.58065 20.1932 6.35118 19.9637 6.20737 19.6815C6.04388 19.3606 6.04388 18.9405 6.04388 18.1005V5.89951C6.04388 5.05943 6.04388 4.63939 6.20737 4.31853C6.35118 4.03628 6.58065 3.80681 6.8629 3.663C7.18376 3.49951 7.6038 3.49951 8.44388 3.49951H11.7334C14.9504 3.49951 17.0873 5.26066 17.0873 7.86716C17.0873 9.65179 16.0775 10.8963 14.2694 11.4599V11.5538C16.6294 12.0822 17.9561 13.5263 17.9561 15.6867C17.9561 18.5749 15.6079 20.5005 12.1091 20.5005H8.44388ZM12.1326 18.5749C14.4808 18.5749 15.8427 17.4478 15.8427 15.5458C15.8427 13.6437 14.4103 12.5166 11.9447 12.5166H8.11029V18.5749H12.1326ZM11.569 10.638C13.7293 10.638 14.9739 9.67527 14.9739 8.03154C14.9739 6.3878 13.7998 5.42503 11.7569 5.42503H8.11029V10.638H11.569Z" fill="currentColor"/>
</svg>
