<svg viewBox="0 0 24 24" fill="currentColor" xmlns="http://www.w3.org/2000/svg" style="width: 100%; height: 100%;">
<path fill-rule="evenodd" clip-rule="evenodd" d="M11.7113 8.64964H3.49979C3.00274 8.64964 2.59979 8.2467 2.59979 7.74964C2.59979 7.25258 3.00274 6.84964 3.49979 6.84964H11.7118C12.113 5.26953 13.5449 4.10062 15.2498 4.10062C16.9547 4.10062 18.3865 5.26953 18.7877 6.84964H20.4997C20.9968 6.84964 21.3997 7.25258 21.3997 7.74964C21.3997 8.2467 20.9968 8.64964 20.4997 8.64964H18.7882C18.3877 10.2307 16.9554 11.4006 15.2498 11.4006C13.5442 11.4006 12.1118 10.2307 11.7113 8.64964ZM13.3998 7.75062C13.3998 6.72889 14.228 5.90062 15.2498 5.90062C16.2715 5.90062 17.0998 6.72889 17.0998 7.75062C17.0998 8.77234 16.2715 9.60062 15.2498 9.60062C14.228 9.60062 13.3998 8.77234 13.3998 7.75062Z" fill="currentColor"/>
<path fill-rule="evenodd" clip-rule="evenodd" d="M5.21134 17.1496H3.49979C3.00274 17.1496 2.59979 16.7467 2.59979 16.2496C2.59979 15.7526 3.00274 15.3496 3.49979 15.3496H5.21184C5.613 13.7695 7.04489 12.6006 8.74978 12.6006C10.4547 12.6006 11.8866 13.7695 12.2877 15.3496H20.4997C20.9968 15.3496 21.3997 15.7526 21.3997 16.2496C21.3997 16.7467 20.9968 17.1496 20.4997 17.1496H12.2882C11.8877 18.7307 10.4554 19.9006 8.74978 19.9006C7.04419 19.9006 5.61183 18.7307 5.21134 17.1496ZM6.89979 16.2506C6.89979 15.2289 7.72806 14.4006 8.74978 14.4006C9.77151 14.4006 10.5998 15.2289 10.5998 16.2506C10.5998 17.2723 9.77151 18.1006 8.74978 18.1006C7.72806 18.1006 6.89979 17.2723 6.89979 16.2506Z" fill="currentColor"/>
</svg>
