<svg viewBox="0 0 28 28" fill="currentColor" xmlns="http://www.w3.org/2000/svg">
<path d="M21.875 16.625C21.1016 16.6246 20.35 16.8816 19.7389 17.3556L17.2112 15.3869C17.4021 14.9494 17.5004 14.4773 17.5 14C17.5 13.9191 17.5 13.8381 17.4912 13.7583L18.9383 13.2759C19.3961 13.982 20.0929 14.4995 20.9012 14.7336C21.7095 14.9677 22.575 14.9028 23.3393 14.5508C24.1036 14.1987 24.7155 13.5831 25.0629 12.8166C25.4102 12.0502 25.4698 11.1843 25.2308 10.3774C24.9917 9.57063 24.4699 8.87696 23.7611 8.42349C23.0522 7.97002 22.2037 7.78712 21.371 7.90829C20.5383 8.02946 19.7771 8.44658 19.2269 9.08325C18.6767 9.71992 18.3742 10.5335 18.375 11.375C18.375 11.4559 18.375 11.5369 18.3837 11.6167L16.9367 12.0991C16.6195 11.6087 16.1846 11.2054 15.6717 10.9261C15.1587 10.6468 14.584 10.5003 14 10.5C13.8069 10.5004 13.6141 10.5165 13.4236 10.5481L12.6755 8.85938C13.3215 8.34323 13.7638 7.61504 13.9242 6.80387C14.0846 5.99271 13.9526 5.15096 13.5516 4.42781C13.1507 3.70466 12.5066 3.14683 11.7337 2.85317C10.9607 2.55952 10.1087 2.54901 9.32877 2.82351C8.54879 3.09801 7.89119 3.63979 7.47251 4.35283C7.05384 5.06586 6.90113 5.9041 7.04145 6.71898C7.18177 7.53385 7.60607 8.27273 8.23913 8.80466C8.87219 9.33659 9.67313 9.6272 10.5 9.625C10.6931 9.6246 10.8859 9.60851 11.0764 9.57688L11.8245 11.2613C11.1901 11.7634 10.7498 12.4703 10.5788 13.2611C10.4078 14.0519 10.5168 14.8775 10.8872 15.5969L8.07515 18.095C7.36747 17.6179 6.5101 17.4153 5.66373 17.5252C4.81736 17.635 4.0401 18.0498 3.47765 18.6917C2.91519 19.3336 2.60616 20.1586 2.60847 21.0121C2.61078 21.8655 2.92428 22.6889 3.49021 23.3277C4.05613 23.9666 4.83562 24.3771 5.68257 24.4824C6.52953 24.5876 7.3858 24.3804 8.09088 23.8995C8.79596 23.4185 9.30144 22.697 9.51258 21.8701C9.72373 21.0431 9.62603 20.1676 9.23781 19.4075L12.0498 16.9094C12.6587 17.3193 13.3813 17.5269 14.1149 17.5025C14.8485 17.4782 15.5558 17.2232 16.1361 16.7738L18.6637 18.7425C18.4735 19.1786 18.3752 19.6492 18.375 20.125C18.375 20.8172 18.5803 21.4939 18.9649 22.0695C19.3494 22.6451 19.8961 23.0937 20.5356 23.3586C21.1751 23.6235 21.8789 23.6928 22.5578 23.5578C23.2367 23.4227 23.8604 23.0894 24.3499 22.5999C24.8394 22.1104 25.1727 21.4868 25.3077 20.8078C25.4428 20.1289 25.3735 19.4252 25.1086 18.7856C24.8437 18.1461 24.3951 17.5994 23.8195 17.2149C23.2439 16.8303 22.5672 16.625 21.875 16.625ZM21.875 9.625C22.2211 9.625 22.5595 9.72764 22.8472 9.91993C23.135 10.1122 23.3593 10.3855 23.4918 10.7053C23.6242 11.0251 23.6589 11.3769 23.5914 11.7164C23.5238 12.0559 23.3572 12.3677 23.1124 12.6124C22.8677 12.8572 22.5559 13.0239 22.2164 13.0914C21.8769 13.1589 21.5251 13.1242 21.2053 12.9918C20.8855 12.8593 20.6122 12.635 20.4199 12.3472C20.2276 12.0595 20.125 11.7211 20.125 11.375C20.125 10.9109 20.3094 10.4658 20.6376 10.1376C20.9657 9.80938 21.4109 9.625 21.875 9.625ZM8.74999 6.125C8.74999 5.77889 8.85263 5.44054 9.04492 5.15276C9.23721 4.86497 9.51053 4.64067 9.8303 4.50821C10.1501 4.37576 10.5019 4.3411 10.8414 4.40863C11.1809 4.47615 11.4927 4.64282 11.7374 4.88757C11.9822 5.13231 12.1488 5.44413 12.2164 5.78359C12.2839 6.12306 12.2492 6.47493 12.1168 6.7947C11.9843 7.11447 11.76 7.38778 11.4722 7.58007C11.1845 7.77237 10.8461 7.875 10.5 7.875C10.0359 7.875 9.59075 7.69063 9.26256 7.36244C8.93437 7.03425 8.74999 6.58913 8.74999 6.125ZM6.12499 22.75C5.77888 22.75 5.44053 22.6474 5.15275 22.4551C4.86496 22.2628 4.64066 21.9895 4.5082 21.6697C4.37575 21.3499 4.34109 20.9981 4.40862 20.6586C4.47614 20.3191 4.64281 20.0073 4.88756 19.7626C5.1323 19.5178 5.44412 19.3512 5.78359 19.2836C6.12305 19.2161 6.47492 19.2508 6.79469 19.3832C7.11446 19.5157 7.38777 19.74 7.58007 20.0278C7.77236 20.3155 7.87499 20.6539 7.87499 21C7.87499 21.4641 7.69062 21.9093 7.36243 22.2374C7.03424 22.5656 6.58912 22.75 6.12499 22.75ZM21.875 21.875C21.5289 21.875 21.1905 21.7724 20.9027 21.5801C20.615 21.3878 20.3907 21.1145 20.2582 20.7947C20.1258 20.4749 20.0911 20.1231 20.1586 19.7836C20.2261 19.4441 20.3928 19.1323 20.6376 18.8876C20.8823 18.6428 21.1941 18.4762 21.5336 18.4086C21.8731 18.3411 22.2249 18.3758 22.5447 18.5082C22.8645 18.6407 23.1378 18.865 23.3301 19.1528C23.5224 19.4405 23.625 19.7789 23.625 20.125C23.625 20.5891 23.4406 21.0343 23.1124 21.3624C22.7842 21.6906 22.3391 21.875 21.875 21.875Z" fill="currentColor"/>
</svg>
