<svg viewBox="0 0 24 24" fill="currentColor" xmlns="http://www.w3.org/2000/svg">
<path fill-rule="evenodd" clip-rule="evenodd" d="M3.50486 3.63319C6.19229 1.33707 9.65229 1.757 11.9922 3.80214C14.3294 1.75568 17.7531 1.36582 20.4707 3.6244C23.3514 6.01867 23.7768 10.0495 21.7187 12.9779L21.5117 13.2572C20.6392 14.3799 18.9363 16.067 17.2998 17.6117C16.4719 18.3932 15.6446 19.1532 14.9228 19.808L13.1767 21.3724C13.0978 21.4423 12.996 21.5343 12.8984 21.6078C12.8163 21.6696 12.7073 21.7431 12.5693 21.8021L12.4219 21.8549C12.1778 21.9277 11.9179 21.9368 11.6699 21.8822L11.5644 21.8549C11.3547 21.7923 11.1973 21.6902 11.0879 21.6078L10.8095 21.3724C9.99482 20.6509 8.34215 19.1744 6.6865 17.6117C5.25453 16.2601 3.77164 14.7996 2.83884 13.7035L2.47459 13.2572C0.176294 10.2994 0.59832 6.11674 3.50486 3.63319ZM11.2334 5.86952C9.52839 3.87643 6.81816 3.43361 4.80467 5.1537C2.70142 6.95075 2.41803 9.92567 4.05369 12.0307L4.37693 12.4252C5.21498 13.4077 6.61323 14.7925 8.05955 16.1576C9.60203 17.6135 11.1459 18.9965 11.9931 19.7484C12.8404 18.9965 14.3842 17.6136 15.9267 16.1576C17.5794 14.5977 19.1694 13.0126 19.9326 12.0307L20.081 11.8295C21.5589 9.72851 21.2487 6.87157 19.1924 5.16249C17.1255 3.44477 14.4504 3.88513 12.7529 5.86952C12.5629 6.09148 12.2853 6.21912 11.9931 6.21913C11.701 6.21911 11.4233 6.09145 11.2334 5.86952Z" fill="currentColor"/>
</svg>
