<svg viewBox="0 0 24 24" fill="currentColor" xmlns="http://www.w3.org/2000/svg">
<path fill-rule="evenodd" clip-rule="evenodd" d="M6.34977 8.74894C6.34977 7.42345 7.42429 6.34893 8.74977 6.34893C10.0752 6.34893 11.1498 7.42345 11.1498 8.74894C11.1498 10.0744 10.0752 11.1489 8.74977 11.1489C7.42429 11.1489 6.34977 10.0744 6.34977 8.74894ZM8.74977 8.14893C8.4184 8.14893 8.14977 8.41756 8.14977 8.74894C8.14977 9.08031 8.4184 9.34894 8.74977 9.34894C9.08114 9.34894 9.34976 9.08031 9.34976 8.74894C9.34976 8.41756 9.08114 8.14893 8.74977 8.14893Z" fill="currentColor"/>
<path fill-rule="evenodd" clip-rule="evenodd" d="M8.26219 2.59952C7.45417 2.59951 6.79328 2.5995 6.25622 2.64338C5.70031 2.6888 5.19823 2.78568 4.72934 3.02459C3.99552 3.3985 3.39889 3.99513 3.02499 4.72896C2.78608 5.19785 2.6892 5.69992 2.64378 6.25584C2.5999 6.79291 2.5999 7.45375 2.59991 8.2618V15.7372C2.5999 16.5453 2.5999 17.2061 2.64378 17.7432C2.6892 18.2991 2.78608 18.8012 3.02499 19.2701C3.39889 20.0039 3.99552 20.6005 4.72934 20.9745C5.19823 21.2134 5.70031 21.3102 6.25622 21.3557C6.79329 21.3995 7.45414 21.3995 8.26219 21.3995H15.7376C16.5456 21.3995 17.2065 21.3995 17.7435 21.3557C18.2995 21.3102 18.8015 21.2134 19.2704 20.9745C20.0042 20.6005 20.6009 20.0039 20.9748 19.2701C21.2137 18.8012 21.3106 18.2991 21.356 17.7432C21.3999 17.2061 21.3999 16.5453 21.3998 15.7372V8.26182C21.3999 7.45376 21.3999 6.79291 21.356 6.25584C21.3106 5.69992 21.2137 5.19785 20.9748 4.72896C20.6009 3.99513 20.0042 3.3985 19.2704 3.02459C18.8015 2.78568 18.2995 2.6888 17.7435 2.64338C17.2065 2.5995 16.5457 2.59951 15.7376 2.59952H8.26219ZM5.54652 4.62841C5.71937 4.54034 5.9582 4.47373 6.4028 4.4374C6.8579 4.40022 7.44497 4.39952 8.2999 4.39952H15.6999C16.5548 4.39952 17.1419 4.40022 17.597 4.4374C18.0416 4.47373 18.2804 4.54034 18.4532 4.62841C18.8484 4.82974 19.1696 5.151 19.371 5.54614C19.459 5.71899 19.5256 5.95782 19.562 6.40242C19.5992 6.85752 19.5999 7.44459 19.5999 8.29952V10.8274L19.3738 10.6013C18.9992 10.2267 18.6801 9.90759 18.3968 9.66706C18.0991 9.41436 17.7822 9.1959 17.3959 9.07037C16.8134 8.88112 16.186 8.88112 15.6036 9.07037C15.2172 9.1959 14.9003 9.41437 14.6026 9.66706C14.3193 9.90758 14.0003 10.2266 13.6257 10.6013L5.13312 19.0939C4.92594 18.9162 4.75413 18.6989 4.62879 18.4529C4.54073 18.2801 4.47412 18.0412 4.43779 17.5966C4.40061 17.1415 4.39991 16.5545 4.39991 15.6995V8.29952C4.39991 7.44459 4.40061 6.85752 4.43779 6.40242C4.47412 5.95782 4.54073 5.71899 4.62879 5.54614C4.83013 5.151 5.15139 4.82974 5.54652 4.62841ZM7.17839 19.5942C7.49408 19.5993 7.86183 19.5995 8.29989 19.5995H15.6999C16.5548 19.5995 17.1419 19.5988 17.597 19.5616C18.0416 19.5253 18.2804 19.4587 18.4532 19.3706C18.8484 19.1693 19.1696 18.848 19.371 18.4529C19.459 18.2801 19.5256 18.0412 19.562 17.5966C19.5992 17.1415 19.5999 16.5545 19.5999 15.6995V13.373L18.1261 11.8991C17.7195 11.4926 17.4524 11.2265 17.2319 11.0393C17.0194 10.8589 16.91 10.8051 16.8396 10.7823C16.6187 10.7105 16.3807 10.7105 16.1598 10.7823C16.0895 10.8051 15.9801 10.8589 15.7676 11.0393C15.547 11.2265 15.2799 11.4926 14.8734 11.8991L7.17839 19.5942Z" fill="currentColor"/>
</svg>
