<svg width="24" height="24" viewBox="0 0 24 24" fill="none" xmlns="http://www.w3.org/2000/svg">
<path d="M18.301 6.84771C18.301 7.49176 17.7858 8.007 17.1417 8.007C16.4977 8.007 15.9824 7.49176 15.9824 6.84771C15.9824 6.20366 16.4977 5.68842 17.1417 5.68842C17.7858 5.68842 18.301 6.20366 18.301 6.84771ZM21.65 12.0001C21.65 14.6192 21.6393 14.952 21.5964 15.9825C21.5534 17.013 21.3817 17.7107 21.1455 18.3225C20.8987 18.9558 20.5659 19.4925 20.0292 20.0293C19.4925 20.566 18.9558 20.8987 18.3225 21.1456C17.7106 21.3818 17.0022 21.5428 15.9824 21.5964C14.952 21.6394 14.6192 21.6501 12.0001 21.6501C9.38094 21.6501 9.04819 21.6394 8.01771 21.5964C6.98724 21.5535 6.28952 21.3818 5.67767 21.1456C5.04436 20.8987 4.50766 20.566 3.97095 20.0293C3.43424 19.4925 3.10149 18.9558 2.8546 18.3225C2.61845 17.7107 2.45744 17.0022 2.40377 15.9825C2.36083 14.952 2.3501 14.6192 2.3501 12.0001C2.3501 9.38097 2.36083 9.04821 2.40377 8.01773C2.4467 6.98725 2.61845 6.28953 2.8546 5.67769C3.10149 5.04437 3.43424 4.50766 3.97095 3.97096C4.50766 3.43425 5.04436 3.10149 5.67767 2.8546C6.28952 2.61845 6.99797 2.45744 8.01771 2.40377C9.04819 2.36083 9.38094 2.3501 12.0001 2.3501C14.6192 2.3501 14.952 2.36083 15.9824 2.40377C17.0129 2.44671 17.7106 2.61845 18.3225 2.8546C18.9558 3.10149 19.4925 3.43425 20.0292 3.97096C20.5659 4.50766 20.8987 5.04437 21.1455 5.67769C21.3817 6.28953 21.5427 6.99799 21.5964 8.01773C21.6393 9.04821 21.65 9.38097 21.65 12.0001ZM19.9111 12.0001C19.9111 9.42391 19.9111 9.11262 19.8574 8.09287C19.8145 7.14827 19.6535 6.64376 19.5247 6.30027C19.3529 5.84943 19.1383 5.52741 18.8055 5.19465C18.4727 4.86189 18.1507 4.64721 17.6999 4.47546C17.3564 4.34665 16.8519 4.18564 15.9073 4.1427C14.8875 4.09977 14.587 4.08903 12.0001 4.08903C9.41315 4.08903 9.11259 4.08903 8.09285 4.1427C7.14825 4.18564 6.64374 4.34665 6.30025 4.47546C5.84942 4.64721 5.5274 4.86189 5.19464 5.19465C4.86188 5.52741 4.6472 5.84943 4.47545 6.30027C4.34664 6.64376 4.18563 7.14827 4.1427 8.09287C4.09976 9.11262 4.08902 9.41317 4.08902 12.0001C4.08902 14.587 4.08902 14.8876 4.1427 15.9073C4.18563 16.8519 4.34664 17.3565 4.47545 17.6999C4.6472 18.1508 4.86188 18.4728 5.19464 18.8056C5.5274 19.1383 5.84942 19.353 6.30025 19.5248C6.64374 19.6536 7.14825 19.8146 8.09285 19.8575C9.11259 19.9004 9.41315 19.9112 12.0001 19.9112C14.587 19.9112 14.8875 19.9112 15.9073 19.8575C16.8519 19.8146 17.3564 19.6536 17.6999 19.5248C18.1507 19.353 18.4727 19.1383 18.8055 18.8056C19.1383 18.4728 19.3529 18.1508 19.5247 17.6999C19.6535 17.3565 19.8145 16.8519 19.8574 15.9073C19.9004 14.8876 19.9111 14.587 19.9111 12.0001ZM16.9485 12.0001C16.9485 14.7373 14.7265 16.9593 11.9893 16.9593C9.25213 16.9593 7.03017 14.7373 7.03017 12.0001C7.03017 9.2629 9.25213 7.04093 11.9893 7.04093C14.7265 7.04093 16.9485 9.2629 16.9485 12.0001ZM15.2096 12.0001C15.2096 10.2182 13.7712 8.77986 11.9893 8.77986C10.2075 8.77986 8.7691 10.2182 8.7691 12.0001C8.7691 13.782 10.2075 15.2204 11.9893 15.2204C13.7712 15.2204 15.2096 13.782 15.2096 12.0001Z" fill="#171719"/>
</svg>
