<svg viewBox="0 0 24 24" fill="currentColor" xmlns="http://www.w3.org/2000/svg" style="width: 100%; height: 100%;">
<path fill-rule="evenodd" clip-rule="evenodd" d="M12 3.15473C6.79541 3.15473 2.57141 6.43587 2.57141 10.4713C2.57141 12.9887 4.20255 15.1856 6.6917 16.5244L5.64513 20.3619C5.62538 20.4382 5.62944 20.5187 5.65677 20.5927C5.6841 20.6667 5.73339 20.7305 5.79803 20.7756C5.86267 20.8208 5.93956 20.8451 6.0184 20.8453C6.09724 20.8455 6.17426 20.8216 6.23913 20.7767L10.8214 17.7313C11.208 17.7313 11.604 17.7973 12 17.7973C17.2046 17.7973 21.4286 14.5162 21.4286 10.4713C21.4286 6.42645 17.2046 3.15473 12 3.15473Z" fill="#171719"/>
</svg>
