<svg viewBox="0 0 24 24" fill="currentColor" xmlns="http://www.w3.org/2000/svg">
<path fill="currentColor" d="M6.97872 6.54154C10.1369 4.30157 14.6945 4.49249 17.5959 6.96666L6.97872 6.54154ZM17.5961 6.96687C19.4735 8.56909 20.2565 10.7785 19.9486 12.8736C19.8684 13.42 20.2462 13.9281 20.7926 14.0084C21.3391 14.0887 21.8471 13.7108 21.9274 13.1644C22.3395 10.3596 21.2726 7.47509 18.8942 5.44533L18.8939 5.44512C15.2853 2.36753 9.71524 2.14849 5.82147 4.91034L5.82132 4.91045C2.02425 7.6048 0.902056 12.3839 3.20102 16.2347L2.05133 19.6838C1.93792 20.024 2.0154 20.399 2.25441 20.6664C2.49341 20.9338 2.85732 21.0527 3.20813 20.9781L7.58343 20.0472C9.51734 20.9013 11.6597 21.1788 13.7518 20.8423C14.2971 20.7546 14.668 20.2415 14.5803 19.6962C14.4926 19.1509 13.9795 18.78 13.4342 18.8677C11.63 19.1579 9.7802 18.8895 8.13287 18.0985C7.93356 18.0028 7.70816 17.9759 7.49191 18.0219L4.50139 18.6582L5.2487 16.4162C5.34701 16.1213 5.30256 15.7974 5.12842 15.5399C3.12975 12.584 3.86491 8.75116 6.97856 6.54165M16.2929 16.2929C16.6834 15.9024 17.3166 15.9024 17.7071 16.2929L19.5 18.0858L21.2929 16.2929C21.6834 15.9024 22.3166 15.9024 22.7071 16.2929C23.0976 16.6834 23.0976 17.3166 22.7071 17.7071L20.9142 19.5L22.7071 21.2929C23.0976 21.6834 23.0976 22.3166 22.7071 22.7071C22.3166 23.0976 21.6834 23.0976 21.2929 22.7071L19.5 20.9142L17.7071 22.7071C17.3166 23.0976 16.6834 23.0976 16.2929 22.7071C15.9024 22.3166 15.9024 21.6834 16.2929 21.2929L18.0858 19.5L16.2929 17.7071C15.9024 17.3166 15.9024 16.6834 16.2929 16.2929Z"/>
</svg>
