<svg width="24" height="24" viewBox="0 0 24 24" fill="currentColor" xmlns="http://www.w3.org/2000/svg">
<path fill-rule="evenodd" clip-rule="evenodd" d="M12 2C17.5228 2 22 6.47715 22 12C22 13.3283 21.7406 14.5985 21.2686 15.7607L21.1846 15.9707C21.1827 15.9757 21.1811 15.9806 21.1797 15.9844V15.9893L21.209 16.1729L21.8027 19.7305C21.8307 19.8981 21.8635 20.0904 21.876 20.2559C21.8888 20.426 21.8932 20.6973 21.7705 20.9834L21.707 21.1123C21.5466 21.4051 21.2927 21.6378 20.9834 21.7705L20.877 21.8105C20.631 21.8918 20.4048 21.8872 20.2559 21.876C20.0904 21.8635 19.8981 21.8307 19.7305 21.8027L16.1729 21.209L15.9893 21.1797L15.9863 21.1787C15.9821 21.1802 15.9767 21.1823 15.9707 21.1846C15.926 21.2014 15.8654 21.226 15.7607 21.2686L15.3203 21.4355C14.2803 21.8015 13.1624 22 12 22C6.47715 22 2 17.5228 2 12C2 6.47715 6.47715 2 12 2Z" fill="currentColor"/>
</svg>
