<svg width="24" height="24" viewBox="0 0 24 24" fill="currentColor" xmlns="http://www.w3.org/2000/svg">
<path fill-rule="evenodd" clip-rule="evenodd" d="M12 2C17.5228 2 22 6.47715 22 12C22 13.3283 21.7406 14.5985 21.2686 15.7607L21.1846 15.9707C21.1827 15.9757 21.1811 15.9806 21.1797 15.9844V15.9893L21.209 16.1729L21.8027 19.7305C21.8307 19.8981 21.8635 20.0904 21.876 20.2559C21.8888 20.426 21.8932 20.6973 21.7705 20.9834L21.707 21.1123C21.5466 21.4051 21.2927 21.6378 20.9834 21.7705L20.877 21.8105C20.631 21.8918 20.4048 21.8872 20.2559 21.876C20.0904 21.8635 19.8981 21.8307 19.7305 21.8027L16.1729 21.209L15.9893 21.1797L15.9863 21.1787C15.9821 21.1802 15.9767 21.1823 15.9707 21.1846C15.926 21.2014 15.8654 21.226 15.7607 21.2686L15.3203 21.4355C14.2803 21.8015 13.1624 22 12 22C6.47715 22 2 17.5228 2 12C2 6.47715 6.47715 2 12 2ZM12 4C7.58172 4 4 7.58172 4 12C4 16.4183 7.58172 20 12 20C12.9326 20 13.8262 19.8409 14.6562 19.5488L15.0078 19.415C15.1263 19.3669 15.2671 19.3076 15.4072 19.2637L15.5469 19.2266L15.7637 19.1895L15.9834 19.1777C16.0764 19.1777 16.1704 19.1865 16.2588 19.1982L16.502 19.2363L19.7832 19.7822L19.2363 16.502L19.1982 16.2588C19.1924 16.2146 19.1872 16.1691 19.1836 16.123L19.1777 15.9834C19.1778 15.9062 19.1816 15.8347 19.1895 15.7637L19.2266 15.5469C19.2471 15.4552 19.2783 15.3597 19.3125 15.2676L19.415 15.0078C19.7916 14.0805 20 13.0659 20 12C20 7.58172 16.4183 4 12 4Z" fill="currentColor"/>
</svg>
