<svg viewBox="0 0 24 24" fill="currentColor" xmlns="http://www.w3.org/2000/svg" style="width: 100%; height: 100%;">
<path d="M20.9941 15.7041L21.5726 14.8884L20.9941 15.7041ZM12.81 13.0877L12.7474 14.0858L12.81 13.0877ZM21.0258 15.7266L21.6028 14.9098L21.6027 14.9098L21.0258 15.7266ZM21.5657 16.2104L20.7805 16.8295L20.7805 16.8295L21.5657 16.2104ZM21.9176 16.8914L20.9583 17.1736V17.1736L21.9176 16.8914ZM21.9999 17.6736L20.9999 17.6711V17.6711L21.9999 17.6736ZM21.9998 17.7279H20.9998V17.7279L21.9998 17.7279ZM21.9998 19.3721L20.9998 19.3721V19.3722L21.9998 19.3721ZM21.9821 20.1171L20.9855 20.0357L20.9855 20.0357L21.9821 20.1171ZM21.7795 20.8964L22.6705 21.3504L21.7795 20.8964ZM20.8962 21.7797L21.3502 22.6707L21.3502 22.6707L20.8962 21.7797ZM20.117 21.9823L20.1984 22.979H20.1984L20.117 21.9823ZM19.3719 22L19.372 21H19.3719V22ZM4.62807 22V21H4.62797L4.62807 22ZM3.88306 21.9823L3.80163 22.979H3.80163L3.88306 21.9823ZM3.10383 21.7797L2.64983 22.6707L2.64983 22.6707L3.10383 21.7797ZM2.22051 20.8964L1.3295 21.3504L2.22051 20.8964ZM2.01789 20.1171L1.02121 20.1986L2.01789 20.1171ZM2.00021 19.3721L3.00021 19.3722V19.3722L2.00021 19.3721ZM2.00011 17.6939L1.00011 17.6966V17.6966L2.00011 17.6939ZM2.07993 16.904L1.11936 16.6259L2.07993 16.904ZM2.42158 16.2308L1.63004 15.6197H1.63004L2.42158 16.2308ZM2.97756 15.7252L3.56604 16.5338L3.56604 16.5338L2.97756 15.7252ZM3.01622 15.6971L3.60661 16.5042L3.60661 16.5042L3.01622 15.6971ZM20.9941 15.7041L21.5726 14.8884C19.4734 13.3995 16.2615 12.3021 12.8725 12.0897L12.81 13.0877L12.7474 14.0858C15.8332 14.2791 18.6709 15.2823 20.4155 16.5198L20.9941 15.7041ZM21.0258 15.7266L21.6027 14.9098C21.5919 14.9021 21.5821 14.8952 21.5726 14.8884L20.9941 15.7041L20.4155 16.5198C20.4269 16.5278 20.4382 16.5358 20.4489 16.5434L21.0258 15.7266ZM21.5657 16.2104L22.351 15.5912C22.0709 15.2359 21.7673 15.026 21.6028 14.9098L21.0258 15.7266L20.4488 16.5433C20.6069 16.6549 20.6961 16.7225 20.7805 16.8295L21.5657 16.2104ZM21.9176 16.8914L22.8769 16.6091C22.7724 16.2538 22.5803 15.8819 22.351 15.5912L21.5657 16.2104L20.7805 16.8295C20.8518 16.92 20.9258 17.0631 20.9583 17.1736L21.9176 16.8914ZM21.9999 17.6736L22.9999 17.6762C23.0005 17.4605 23.0068 17.0505 22.8769 16.6091L21.9176 16.8914L20.9583 17.1736C20.9955 17.3003 21.0005 17.4355 20.9999 17.6711L21.9999 17.6736ZM21.9998 17.7279H22.9998C22.9998 17.7117 22.9999 17.6949 22.9999 17.6762L21.9999 17.6736L20.9999 17.6711C20.9999 17.6892 20.9998 17.7086 20.9998 17.7279H21.9998ZM21.9821 20.1171L22.9788 20.1986C23.0006 19.9324 22.9998 19.6302 22.9998 19.372L21.9998 19.3721L20.9998 19.3722C20.9998 19.6551 20.9992 19.8679 20.9855 20.0357L21.9821 20.1171ZM21.7795 20.8964L22.6705 21.3504C22.8924 20.9149 22.9544 20.4974 22.9788 20.1985L21.9821 20.1171L20.9855 20.0357C20.9712 20.21 20.943 20.3353 20.8885 20.4424L21.7795 20.8964ZM20.8962 21.7797L21.3502 22.6707C21.9187 22.381 22.3809 21.9188 22.6705 21.3504L21.7795 20.8964L20.8885 20.4424C20.7906 20.6345 20.6344 20.7908 20.4422 20.8887L20.8962 21.7797ZM20.117 21.9823L20.1984 22.979C20.4973 22.9546 20.9147 22.8926 21.3502 22.6707L20.8962 21.7797L20.4422 20.8887C20.3352 20.9432 20.2098 20.9714 20.0355 20.9856L20.117 21.9823ZM19.3719 22L19.3718 23C19.6301 23 19.9323 23.0007 20.1984 22.979L20.117 21.9823L20.0355 20.9856C19.8677 20.9994 19.6549 21 19.372 21L19.3719 22ZM3.88306 21.9823L3.80163 22.979C4.06776 23.0007 4.36997 23 4.62817 23L4.62807 22L4.62797 21C4.34508 21 4.13231 20.9994 3.96449 20.9856L3.88306 21.9823ZM3.10383 21.7797L2.64983 22.6707C3.0853 22.8926 3.50274 22.9546 3.80163 22.979L3.88306 21.9823L3.96449 20.9856C3.79018 20.9714 3.66485 20.9432 3.55782 20.8887L3.10383 21.7797ZM2.22051 20.8964L1.3295 21.3504C1.61916 21.9188 2.08135 22.381 2.64983 22.6707L3.10383 21.7797L3.55782 20.8887C3.36567 20.7908 3.20944 20.6345 3.11152 20.4424L2.22051 20.8964ZM2.01789 20.1171L1.02121 20.1986C1.04563 20.4974 1.10763 20.9149 1.3295 21.3504L2.22051 20.8964L3.11152 20.4424C3.05699 20.3353 3.02881 20.21 3.01456 20.0357L2.01789 20.1171ZM2.00021 19.3721L1.00021 19.372C1.00018 19.6302 0.999463 19.9324 1.02121 20.1986L2.01789 20.1171L3.01456 20.0357C3.00085 19.8679 3.00018 19.6551 3.00021 19.3722L2.00021 19.3721ZM2.00021 19.3404H1.00021C1.00021 19.351 1.00021 19.3615 1.00021 19.372L2.00021 19.3721L3.00021 19.3722C3.00021 19.3617 3.00021 19.3511 3.00021 19.3404H2.00021ZM2.00021 17.752H1.00021V19.3404H2.00021H3.00021V17.752H2.00021ZM2.00011 17.6939L1.00011 17.6966C1.00017 17.7165 1.00021 17.7345 1.00021 17.752H2.00021H3.00021C3.00021 17.7314 3.00016 17.7107 3.00011 17.6913L2.00011 17.6939ZM2.07993 16.904L1.11936 16.6259C0.992858 17.0629 0.999535 17.4785 1.00011 17.6966L2.00011 17.6939L3.00011 17.6913C2.99946 17.4459 3.00466 17.3058 3.04049 17.1821L2.07993 16.904ZM2.42158 16.2308L1.63004 15.6197C1.40405 15.9124 1.22219 16.2707 1.11936 16.6259L2.07993 16.904L3.04049 17.1821C3.07346 17.0681 3.14064 16.9358 3.21311 16.8419L2.42158 16.2308ZM2.97756 15.7252L2.38908 14.9167C2.2222 15.0382 1.90528 15.2632 1.63004 15.6197L2.42158 16.2308L3.21311 16.8419C3.29345 16.7379 3.3915 16.6608 3.56604 16.5338L2.97756 15.7252ZM3.01622 15.6971L2.42583 14.8899C2.41431 14.8984 2.40239 14.907 2.38908 14.9167L2.97756 15.7252L3.56604 16.5338C3.57896 16.5244 3.59283 16.5143 3.60661 16.5042L3.01622 15.6971ZM12.81 13.0877L12.8725 12.0897C9.45859 11.8757 5.62906 12.5469 2.42583 14.8899L3.01622 15.6971L3.60661 16.5042C6.33432 14.5089 9.66214 13.8924 12.7474 14.0858L12.81 13.0877ZM21.9998 19.3721L22.9998 19.3721L22.9998 17.7279L21.9998 17.7279L20.9998 17.7279L20.9998 19.3721L21.9998 19.3721ZM4.62807 22V23H19.3719V22V21H4.62807V22ZM12 2V1C8.6994 1 6.02376 3.67571 6.02376 6.97633H7.02376H8.02376C8.02376 4.78025 9.804 3 12 3V2ZM16.9763 6.97633H17.9763C17.9763 3.67571 15.3006 1 12 1V2V3C14.196 3 15.9763 4.78025 15.9763 6.97633H16.9763ZM12 11.9527V12.9527C15.3006 12.9527 17.9763 10.277 17.9763 6.97633H16.9763H15.9763C15.9763 9.17242 14.196 10.9527 12 10.9527V11.9527ZM7.02376 6.97633H6.02376C6.02376 10.277 8.6994 12.9527 12 12.9527V11.9527V10.9527C9.804 10.9527 8.02376 9.17242 8.02376 6.97633H7.02376Z" fill="currentColor"/>
</svg>
