<svg viewBox="0 0 24 24" fill="currentColor" xmlns="http://www.w3.org/2000/svg">
<path fill-rule="evenodd" clip-rule="evenodd" d="M12.81 13.0877C16.0473 13.2906 19.0722 14.3409 20.9941 15.7041C21.0045 15.7115 21.0151 15.719 21.0258 15.7266C21.1871 15.8405 21.3835 15.9792 21.5657 16.2104C21.716 16.401 21.8491 16.6585 21.9176 16.8914C22.0012 17.1754 22.0005 17.448 21.9999 17.6736C21.9999 17.6921 21.9998 17.7102 21.9998 17.7279L21.9998 19.3721C21.9998 19.6426 21.9999 19.9001 21.9821 20.1171C21.9628 20.3537 21.9177 20.6251 21.7795 20.8964C21.5857 21.2767 21.2765 21.5859 20.8962 21.7797C20.6249 21.9179 20.3536 21.963 20.117 21.9823C19.9 22 19.6425 22 19.3719 22H4.62807C4.35752 22 4.10004 22 3.88306 21.9823C3.64646 21.963 3.37507 21.9179 3.10383 21.7797C2.72351 21.5859 2.4143 21.2767 2.22051 20.8964C2.08231 20.6251 2.03722 20.3537 2.01789 20.1171C2.00016 19.9001 2.00018 19.6426 2.00021 19.3721C2.00021 19.3616 2.00021 19.351 2.00021 19.3404V17.752C2.00021 17.733 2.00016 17.7136 2.00011 17.6939C1.9995 17.4622 1.99876 17.1844 2.07993 16.904C2.14783 16.6694 2.27234 16.4241 2.42158 16.2308C2.59936 16.0005 2.80685 15.8495 2.97756 15.7252C2.99067 15.7157 3.00357 15.7063 3.01622 15.6971C5.98169 13.5279 9.56037 12.8841 12.81 13.0877Z" fill="currentColor"/>
<path fill-rule="evenodd" clip-rule="evenodd" d="M7.02376 6.97633C7.02376 4.22798 9.2517 2 12 2C14.7483 2 16.9763 4.22798 16.9763 6.97633C16.9763 9.72469 14.7483 11.9527 12 11.9527C9.2517 11.9527 7.02376 9.72469 7.02376 6.97633Z" fill="currentColor"/>
</svg>
