<svg viewBox="0 0 24 24" fill="currentColor" xmlns="http://www.w3.org/2000/svg" style="width: 100%; height: 100%;">
<path fill-rule="evenodd" clip-rule="evenodd" d="M5.9502 1.87109C6.33457 1.88872 6.66484 2.04073 6.91407 2.17578C7.20781 2.33497 7.55593 2.56788 7.94337 2.82617L18.459 9.83691L18.9131 10.1426C19.0549 10.2408 19.1853 10.335 19.2979 10.4258C19.5246 10.6087 19.7924 10.8624 19.9463 11.2334L20.0127 11.4199C20.1272 11.7978 20.1271 12.2012 20.0127 12.5791L19.9463 12.7656C19.7924 13.1367 19.5247 13.3913 19.2979 13.5742C19.1852 13.665 19.0549 13.7593 18.9131 13.8574L18.459 14.1631L7.94337 21.1738C7.55598 21.4321 7.20778 21.665 6.91407 21.8242C6.66485 21.9593 6.33453 22.1113 5.9502 22.1289L5.78223 22.1279C5.27137 22.0974 4.79484 21.8722 4.44727 21.5039L4.30665 21.3379C4.03083 20.9733 3.96023 20.5502 3.93067 20.2275C3.90019 19.8949 3.90137 19.4763 3.90137 19.0107V4.98926C3.90137 4.52375 3.90021 4.10512 3.93067 3.77246C3.96023 3.44982 4.03086 3.02671 4.30665 2.66211L4.44727 2.49512C4.79481 2.12709 5.27155 1.90256 5.78223 1.87207L5.9502 1.87109ZM5.92286 3.95508C5.90275 4.17477 5.90137 4.4842 5.90137 4.98926V19.0107C5.90137 19.5158 5.90274 19.8253 5.92286 20.0449C5.92404 20.0578 5.92651 20.0698 5.92774 20.0811C5.9379 20.0758 5.95032 20.0717 5.96192 20.0654C6.15583 19.9603 6.41398 19.7898 6.83399 19.5098L17.3496 12.499L17.7754 12.2119C17.8876 12.1344 17.9732 12.0721 18.042 12.0166C18.049 12.0109 18.0545 12.0041 18.0606 11.999C18.0547 11.9942 18.0487 11.9878 18.042 11.9824C17.9731 11.9269 17.8875 11.8646 17.7754 11.7871L17.3496 11.501L6.83399 4.49023C6.41369 4.21003 6.15588 4.03873 5.96192 3.93359C5.95005 3.92716 5.9381 3.92236 5.92774 3.91699C5.92645 3.92869 5.9241 3.9415 5.92286 3.95508Z" fill="currentColor"/>
</svg>
