<svg width="24" height="24" viewBox="0 0 24 24" fill="currentColor" xmlns="http://www.w3.org/2000/svg">
<path d="M17.8336 6.16636C18.3218 6.65452 18.3218 7.44598 17.8336 7.93413L13.7678 12L17.8336 16.0659C18.3218 16.554 18.3218 17.3455 17.8336 17.8336C17.3455 18.3218 16.554 18.3218 16.0659 17.8336L12 13.7678L7.93414 17.8336C7.44598 18.3218 6.65452 18.3218 6.16637 17.8336C5.67821 17.3455 5.67821 16.554 6.16637 16.0659L10.2322 12L6.16637 7.93413C5.67821 7.44598 5.67821 6.65452 6.16637 6.16636C6.65452 5.67821 7.44598 5.67821 7.93414 6.16636L12 10.2322L16.0659 6.16636C16.554 5.67821 17.3455 5.67821 17.8336 6.16636Z" fill="currentColor"/>
</svg>
