<svg width="20" height="20" viewBox="0 0 18 18" fill="none" xmlns="http://www.w3.org/2000/svg">
<path fill-rule="evenodd" clip-rule="evenodd" d="M14.7711 5.00231C13.1418 2.63713 10.1609 1.47897 7.25587 2.22389C6.02531 2.54048 4.90413 3.18604 4.01255 4.09136C3.12089 4.99676 2.49251 6.12781 2.19481 7.36319C1.8971 8.59857 1.9413 9.8917 2.32266 11.1039C2.70402 12.316 3.40816 13.4015 4.35956 14.2439C5.31095 15.0864 6.47372 15.6539 7.72315 15.8857C8.97258 16.1175 10.2615 16.0048 11.4518 15.5597C12.642 15.1146 13.6887 14.3539 14.4795 13.3592C15.2703 12.3645 15.7753 11.1733 15.9406 9.9133C16.0124 9.36571 16.5145 8.98001 17.0621 9.05182C17.6097 9.12363 17.9954 9.62576 17.9236 10.1734C17.7112 11.7933 17.0618 13.3249 16.045 14.6038C15.0283 15.8827 13.6826 16.8608 12.1523 17.433C10.622 18.0053 8.96474 18.1501 7.35833 17.8521C5.75192 17.5541 4.25694 16.8244 3.03372 15.7413C1.81049 14.6582 0.905172 13.2626 0.414851 11.7041C-0.0754699 10.1456 -0.132296 8.48299 0.250469 6.89464C0.633233 5.30629 1.44115 3.85209 2.58757 2.688C3.73398 1.52392 5.17566 0.693861 6.75797 0.286853C10.241 -0.606471 13.8316 0.637107 15.9991 3.30676V1.00231C15.9991 0.450028 16.4468 0.00231244 16.9991 0.00231244C17.5514 0.00231244 17.9991 0.450028 17.9991 1.00231V6.00231C17.9991 6.5546 17.5514 7.00231 16.9991 7.00231H16.456C16.4402 7.00269 16.4245 7.00269 16.4088 7.00231H11.9991C11.4468 7.00231 10.9991 6.5546 10.9991 6.00231C10.9991 5.45003 11.4468 5.00231 11.9991 5.00231H14.7711Z" fill="#171719"/>
</svg>
