<svg viewBox="0 0 20 19" fill="currentColor" xmlns="http://www.w3.org/2000/svg" style="width: 100%; height: 100%;">
<path fill="currentColor" d="M4.87868 0.87868C5.44129 0.31607 6.20435 0 7 0H17C17.7957 0 18.5587 0.31607 19.1213 0.87868C19.6839 1.44129 20 2.20435 20 3V11C20 11.5523 19.5523 12 19 12C18.4477 12 18 11.5523 18 11V3C18 2.73478 17.8946 2.48043 17.7071 2.29289C17.5196 2.10536 17.2652 2 17 2H7C6.73478 2 6.48043 2.10536 6.29289 2.29289C6.10536 2.48043 6 2.73478 6 3V10H15C15.5523 10 16 10.4477 16 11C16 11.5523 15.5523 12 15 12C14.4696 12 13.9609 12.2107 13.5858 12.5858C13.2107 12.9609 13 13.4696 13 14C13 14.5523 12.5523 15 12 15C11.4477 15 11 14.5523 11 14C11 13.2918 11.1878 12.6029 11.5359 12H4C3.46957 12 2.96086 12.2107 2.58579 12.5858C2.21071 12.9609 2 13.4696 2 14C2 14.5304 2.21071 15.0391 2.58579 15.4142C2.96086 15.7893 3.46957 16 4 16H12C12.5523 16 13 16.4477 13 17C13 17.5523 12.5523 18 12 18H4C2.93913 18 1.92172 17.5786 1.17157 16.8284C0.421427 16.0783 0 15.0609 0 14C0 12.9391 0.421427 11.9217 1.17157 11.1716C1.92172 10.4214 2.93913 10 4 10V3C4 2.20435 4.31607 1.44129 4.87868 0.87868ZM15.5858 16L14.2929 14.7071C13.9024 14.3166 13.9024 13.6834 14.2929 13.2929C14.6834 12.9024 15.3166 12.9024 15.7071 13.2929L17 14.5858L18.2929 13.2929C18.6834 12.9024 19.3166 12.9024 19.7071 13.2929C20.0976 13.6834 20.0976 14.3166 19.7071 14.7071L18.4142 16L19.7071 17.2929C20.0976 17.6834 20.0976 18.3166 19.7071 18.7071C19.3166 19.0976 18.6834 19.0976 18.2929 18.7071L17 17.4142L15.7071 18.7071C15.3166 19.0976 14.6834 19.0976 14.2929 18.7071C13.9024 18.3166 13.9024 17.6834 14.2929 17.2929L15.5858 16Z"/>
</svg>
