<svg viewBox="0 0 24 24" fill="currentColor" xmlns="http://www.w3.org/2000/svg">
<path d="M19 4C19.5523 4 20 4.44772 20 5V19C20 19.5523 19.5523 20 19 20C18.4477 20 18 19.5523 18 19V5C18 4.44772 18.4477 4 19 4Z" fill="currentColor"/>
<path fill-rule="evenodd" clip-rule="evenodd" d="M6.17969 4.09082C6.58487 4.13731 6.92297 4.3322 7.1709 4.49609C7.46969 4.69363 7.8241 4.97842 8.22461 5.29883L14.0625 9.96973L14.4277 10.2646C14.5426 10.3598 14.6489 10.4519 14.7412 10.54C14.9319 10.7221 15.1473 10.9646 15.2725 11.2988L15.3281 11.4697C15.4235 11.8167 15.4235 12.1833 15.3281 12.5303L15.2725 12.7012C15.1473 13.0354 14.9319 13.2779 14.7412 13.46C14.6489 13.5481 14.5426 13.6402 14.4277 13.7354L14.0625 14.0303L8.22461 18.7012C7.8241 19.0216 7.46969 19.3064 7.1709 19.5039C6.92297 19.6678 6.58487 19.8627 6.17969 19.9092L6.00196 19.9189C5.46895 19.9195 4.96104 19.708 4.5879 19.3359L4.43653 19.167C4.13442 18.7884 4.06197 18.3323 4.03125 17.9941C3.9989 17.6375 4 17.1836 4 16.6709V7.3291C4 6.81641 3.9989 6.3625 4.03125 6.00586C4.06197 5.66766 4.13442 5.21164 4.43653 4.83301L4.5879 4.66406C4.96104 4.29204 5.46896 4.08054 6.00196 4.08105L6.17969 4.09082Z" fill="currentColor"/>
</svg>
