<svg width="24" height="24" viewBox="0 0 24 24" fill="currentColor" xmlns="http://www.w3.org/2000/svg">
<path d="M5 4C5.55228 4 6 4.44772 6 5V19C6 19.5523 5.55228 20 5 20C4.44772 20 4 19.5523 4 19V5C4 4.44772 4.44772 4 5 4Z" fill="currentColor"/>
<path fill-rule="evenodd" clip-rule="evenodd" d="M18.2246 4.09277C18.6734 4.14345 19.0923 4.34517 19.4121 4.66406L19.5635 4.83301L19.666 4.97852C19.8827 5.32396 19.9419 5.70995 19.9688 6.00586C20.0011 6.3625 20 6.81641 20 7.3291V16.6709C20 17.1836 20.0011 17.6375 19.9688 17.9941C19.9419 18.2901 19.8827 18.676 19.666 19.0215L19.5635 19.167C19.231 19.5835 18.7481 19.8481 18.2246 19.9072L17.998 19.9189C17.5137 19.9184 17.1124 19.6912 16.8291 19.5039C16.6798 19.4052 16.5166 19.2842 16.3408 19.1484L15.7754 18.7012L9.9375 14.0303C9.68492 13.8282 9.44354 13.6364 9.25879 13.46C9.09187 13.3005 8.9059 13.0952 8.77832 12.8223L8.72754 12.7012C8.55832 12.2491 8.55832 11.7509 8.72754 11.2988L8.77832 11.1777C8.9059 10.9048 9.09187 10.6995 9.25879 10.54C9.44354 10.3636 9.68492 10.1718 9.9375 9.96973L15.7754 5.29883C16.1759 4.97842 16.5303 4.69363 16.8291 4.49609C17.1124 4.3088 17.5137 4.08158 17.998 4.08105L18.2246 4.09277Z" fill="currentColor"/>
</svg>
