<svg width="24" height="24" viewBox="0 0 24 24" fill="none" xmlns="http://www.w3.org/2000/svg">
<g clip-path="url(#clip0_3164_12343)">
<path d="M12.6676 22.7547H12.6613C9.43021 22.7329 6.94622 21.6749 5.27717 19.6089C3.79154 17.7707 3.02577 15.213 3 12.0077V11.9922C3.02577 8.78602 3.79154 6.22919 5.27738 4.39099C6.94557 2.32501 9.43021 1.26696 12.6607 1.24524H12.6733C15.1503 1.26159 17.2224 1.89439 18.833 3.12452C20.3468 4.28108 21.412 5.92935 22.0002 8.0248L20.1596 8.53457C19.1637 4.98616 16.6431 3.17184 12.6672 3.14323C10.042 3.16173 8.0572 3.98145 6.76648 5.57853C5.55762 7.0743 4.93283 9.2347 4.91031 11.9993C4.9337 14.7648 5.55848 16.925 6.76648 18.4201C8.0572 20.0174 10.042 20.8369 12.6672 20.8554C15.0334 20.8384 16.5996 20.2908 17.902 19.0234C19.3885 17.5771 19.3612 15.8033 18.8854 14.7243C18.6054 14.0883 18.0969 13.5585 17.4112 13.1572C17.2388 14.3671 16.8512 15.3494 16.2524 16.0891C15.4537 17.0766 14.3213 17.6167 12.8879 17.6933C11.8031 17.7514 10.758 17.4965 9.94693 16.9753C8.98755 16.3586 8.42622 15.4152 8.36602 14.3185C8.30754 13.2518 8.73331 12.2712 9.5647 11.5569C10.3595 10.8744 11.477 10.4741 12.7973 10.4003C13.7706 10.3461 14.6808 10.3887 15.5224 10.5281C15.4108 9.86278 15.1847 9.33515 14.8478 8.954C14.3845 8.4296 13.6677 8.1616 12.7185 8.15536H12.6921C11.9302 8.15536 10.8953 8.36293 10.2354 9.33752L8.64993 8.27861C9.53286 6.97492 10.9669 6.25758 12.6914 6.25758H12.7304C15.6138 6.27543 17.3302 8.02673 17.5011 11.0858C17.5992 11.1269 17.6954 11.1695 17.7904 11.2136C19.1357 11.8419 20.1191 12.793 20.6354 13.9642C21.3544 15.597 21.4209 18.2579 19.2379 20.3802C17.5704 22.0023 15.5458 22.7342 12.6735 22.7536H12.6672L12.6681 22.7545L12.6676 22.7547ZM13.5724 12.2766C13.3541 12.2766 13.1326 12.2828 12.9063 12.2959C11.2489 12.3888 10.2163 13.1425 10.2748 14.2163C10.3365 15.341 11.5859 15.8639 12.7861 15.7996C13.8912 15.7407 15.3294 15.3139 15.5704 12.474C14.9606 12.3448 14.2899 12.2766 13.5724 12.2766Z" fill="#37383C" fill-opacity="0.61"/>
</g>
<defs>
<clipPath id="clip0_3164_12343">
<rect width="19" height="21.5094" fill="white" transform="translate(3 1.24524)"/>
</clipPath>
</defs>
</svg>
