<svg width="24" height="24" viewBox="0 0 24 24" fill="currentColor" xmlns="http://www.w3.org/2000/svg">
<path d="M12 7.99999C12.5522 8.00003 13 8.44773 13 8.99999V12.5859L14.707 14.293L14.7754 14.3691C15.0957 14.7619 15.0731 15.3409 14.707 15.707C14.3409 16.0731 13.7619 16.0957 13.3691 15.7754L13.293 15.707L11.293 13.707C11.1054 13.5195 11 13.2652 11 13V8.99999C11 8.4477 11.4477 7.99999 12 7.99999Z" fill="currentColor"/>
<path fill-rule="evenodd" clip-rule="evenodd" d="M12 3.99999C14.3869 4.00001 16.6764 4.94792 18.3642 6.63573C20.052 8.32355 21 10.6131 21 13L20.9892 13.4463C20.8954 15.3369 20.2061 17.1444 19.0303 18.6162L20.707 20.293L20.7754 20.3691C21.0957 20.7619 21.0731 21.3409 20.707 21.707C20.3409 22.0731 19.7619 22.0957 19.3691 21.7754L19.293 21.707L17.6162 20.0303C16.1444 21.2061 14.3369 21.8954 12.4463 21.9892L12 22C9.94859 22 7.97011 21.2986 6.3828 20.0303L4.70702 21.707C4.31652 22.0975 3.68348 22.0975 3.29295 21.707C2.90243 21.3165 2.90243 20.6835 3.29295 20.293L4.96874 18.6162C3.70095 17.0291 3 15.0509 2.99999 13C2.99999 10.613 3.9479 8.32355 5.63573 6.63573C7.32355 4.9479 9.61304 3.99999 12 3.99999ZM12 5.99999C10.1435 5.99999 8.36255 6.73704 7.04979 8.04979C5.73704 9.36255 4.99999 11.1435 4.99999 13C5.00001 14.8565 5.73705 16.6374 7.04979 17.9502C8.36254 19.2629 10.1435 20 12 20L12.3467 19.9912C14.0769 19.9054 15.7194 19.181 16.9502 17.9502C18.2629 16.6374 19 14.8565 19 13L18.9912 12.6533C18.9055 10.923 18.1809 9.28059 16.9502 8.04979C15.6374 6.73705 13.8565 6.00001 12 5.99999Z" fill="currentColor"/>
<path d="M4.29295 2.29295C4.68348 1.90243 5.31649 1.90243 5.70702 2.29295C6.09747 2.68348 6.09752 3.31652 5.70702 3.70702L2.70702 6.70702C2.31652 7.09752 1.68348 7.09747 1.29295 6.70702C0.90243 6.31649 0.90243 5.68348 1.29295 5.29295L4.29295 2.29295Z" fill="currentColor"/>
<path d="M18.293 2.29295C18.6591 1.92684 19.2381 1.90424 19.6308 2.22459L19.707 2.29295L22.707 5.29295L22.7754 5.36913C23.0957 5.7619 23.0731 6.34093 22.707 6.70702C22.3409 7.07311 21.7619 7.09566 21.3691 6.77538L21.293 6.70702L18.293 3.70702L18.2246 3.63084C17.9042 3.23807 17.9268 2.65907 18.293 2.29295Z" fill="currentColor"/>
</svg>
