<svg viewBox="0 0 24 24" fill="currentColor" xmlns="http://www.w3.org/2000/svg">
<path d="M21 13.9999C21.5523 13.9999 22 14.4476 22 14.9999V16.2001C22 17.0235 22.001 17.7015 21.9561 18.2518C21.9159 18.7436 21.8356 19.201 21.6504 19.6327L21.5645 19.8163C21.2289 20.4747 20.7182 21.0258 20.0918 21.41L19.8164 21.5643C19.3311 21.8116 18.814 21.91 18.252 21.9559C17.7016 22.0009 17.0237 21.9999 16.2002 21.9999H7.79981C6.97633 21.9999 6.29843 22.0009 5.74805 21.9559C5.25623 21.9157 4.7989 21.8354 4.36719 21.6503L4.1836 21.5643C3.52518 21.2288 2.97413 20.7181 2.58985 20.0917L2.43555 19.8163C2.18831 19.331 2.08988 18.8138 2.04395 18.2518C1.99898 17.7015 2 17.0235 2 16.2001V14.9999C2 14.4476 2.44772 13.9999 3 13.9999C3.55229 13.9999 4 14.4476 4 14.9999V16.2001C4 17.0563 4.00035 17.6388 4.03711 18.0887C4.07294 18.527 4.1381 18.7517 4.21778 18.9081L4.29492 19.0458C4.48706 19.359 4.76262 19.6144 5.0918 19.7821L5.22461 19.8387C5.37418 19.8922 5.58258 19.9359 5.91113 19.9628C6.36117 19.9995 6.94343 19.9999 7.79981 19.9999H16.2002C17.0566 19.9999 17.6388 19.9995 18.0889 19.9628C18.5272 19.927 18.7518 19.8618 18.9082 19.7821L19.0459 19.705C19.3591 19.5128 19.6145 19.2372 19.7822 18.9081L19.8389 18.7753C19.8924 18.6257 19.936 18.4172 19.9629 18.0887C19.9996 17.6388 20 17.0563 20 16.2001V14.9999C20 14.4476 20.4477 13.9999 21 13.9999Z" fill="currentColor"/>
<path d="M11.3691 2.22449C11.7619 1.90414 12.3409 1.92673 12.707 2.29285L17.707 7.29285L17.7754 7.36902C18.0956 7.76179 18.0731 8.34084 17.707 8.70691C17.3409 9.07288 16.7619 9.09549 16.3691 8.77527L16.293 8.70691L13 5.41394V14.9999C12.9999 15.5521 12.5522 15.9999 12 15.9999C11.4478 15.9999 11.0001 15.5521 11 14.9999V5.41394L7.70703 8.70691C7.31654 9.09728 6.68347 9.09728 6.29297 8.70691C5.90249 8.31643 5.90256 7.68338 6.29297 7.29285L11.293 2.29285L11.3691 2.22449Z" fill="currentColor"/>
</svg>
